<?xml version="1.0" encoding="utf-8"?>
<!-- Generator: Adobe Illustrator 26.5.0, SVG Export Plug-In . SVG Version: 6.00 Build 0)  -->
<svg version="1.1" id="Layer_1" xmlns="http://www.w3.org/2000/svg" xmlns:xlink="http://www.w3.org/1999/xlink" x="0px" y="0px"
	 viewBox="0 0 840 540" style="enable-background:new 0 0 840 540;" xml:space="preserve">
<style type="text/css">
	.st0{fill:#FFFFFF;}
	.st1{fill:#75A9FC;}
	.st2{fill:#3476B7;}
	.st3{fill:#5A90E0;}
	.st4{fill:#758BDE;}
	.st5{fill:#FF9880;}
	.st6{fill:#10137E;}
	.st7{fill:#BDD066;}
	.st8{fill:#D57458;}
	.st9{fill:none;stroke:#D57458;stroke-width:1.4553;stroke-linecap:round;stroke-linejoin:round;stroke-miterlimit:10;}
	.st10{fill:none;stroke:#916530;stroke-width:1.4553;stroke-linecap:round;stroke-linejoin:round;stroke-miterlimit:10;}
	.st11{fill:#1D1D1B;}
	.st12{fill:#FFB888;}
	.st13{fill:#D64E76;}
	.st14{fill:#D89060;}
	.st15{fill:#A6B742;}
	.st16{fill:#A52F56;}
	.st17{opacity:0.5;fill:#091242;enable-background:new    ;}
	.st18{fill:none;stroke:#1D1D1B;stroke-width:1.1288;stroke-linecap:round;stroke-linejoin:round;stroke-miterlimit:10;}
	.st19{fill:#A7B749;}
	.st20{fill:#87A6D8;}
	.st21{opacity:0.5;fill:#BC3C67;enable-background:new    ;}
	.st22{fill:none;stroke:#D76D5F;stroke-width:1.2811;stroke-linecap:round;stroke-linejoin:round;stroke-miterlimit:10;}
	.st23{fill:none;stroke:#432918;stroke-width:1.2811;stroke-linecap:round;stroke-linejoin:round;stroke-miterlimit:10;}
	.st24{fill:#B07B3A;}
	.st25{font-family:'Aller-Bold';}
	.st26{font-size:72.3292px;}
</style>
<path class="st0" d="M828.2,368.1c0,0,24.5-212.1-318.9-287.8c0,0-103.2-26.2-144.8-37.6s-70.1-21.5-114.6-18.4
	c-100,7-115,26.3-170.5,156.5c-11.5,26.9-24.5,53.1-38.8,78.7c-26.7,47.7-67.8,153.8,42,220c152.5,92,222.2,37.6,385.5,42
	c60.4,1.6,123.5,9.6,178.6,2.8C742.1,512.3,819,459,828.2,368.1z"/>
<g>
	<g>
		<path class="st1" d="M446.3,195.7l-39.3,8.1c-15.9,3.3-27.4,16.1-27.6,30.6l-1.2,105c-0.1,6.7,6.7,11.5,14.2,10.1l87.2-18.1
			c3.8-0.8,6.5-4,6.3-7.5l-7.6-107.3C477.2,202.2,462.3,192.5,446.3,195.7z"/>
		<polygon class="st2" points="449.9,349 466,462.7 471.3,462.7 459.8,349 		"/>
		<polygon class="st2" points="406.7,349 390.6,462.7 385.3,462.7 396.9,349 		"/>
		<polygon class="st3" points="372.5,349 356.3,462.7 351.1,462.7 362.6,349 		"/>
		<polygon class="st3" points="483.9,349 500,462.7 505.2,462.7 493.8,349 		"/>
		<path class="st1" d="M483.3,350.5H360.5c-3.7,0-6.8-3-6.8-6.8v-3.9c0-3.7,3-6.8,6.8-6.8h122.9c3.7,0,6.6,3,6.6,6.6v4.2
			C489.9,347.6,487,350.5,483.3,350.5z"/>
	</g>
	<g>
		<g>
			<g>
				<path class="st4" d="M312.9,175.7c-5.1,2.6-4.3,5.6-4.3,5.6s20.4,54.6,22.1,59.5c8.2,23.8,31.5,7.4,29-1.9
					c-5.5-20.7-38.9-65.1-38.9-65.1S316.8,173.7,312.9,175.7z"/>
			</g>
			<path class="st5" d="M312.3,178.6c0,0-9.4-10.9-10.4-13c-0.9-2.2-1.8-11.1-1.2-11.5s1.2-0.3,1.9,0.9c0.8,1.2,2.4,5.6,2.8,5.1
				s-3.6-13.7-1.2-15.1c2.3-1.4,10.3,2.8,13.5,8.2s2.6,19.6,3,20.7C324.1,182,312.3,178.6,312.3,178.6z"/>
			<g>
				<path class="st4" d="M355.5,249.1c4.1-3,51.9-38.7,51.9-38.7s20.4-12.9,18.6-26.4c-1.6-11.8-9.6-17.6-17.7-20.5
					c-9.7-3.4-20.4-0.5-27.1,7.3c-15,17.4-44.7,52.3-48.9,61C323,251.1,350.3,253.1,355.5,249.1z"/>
			</g>
		</g>
		<rect x="460.9" y="427.6" class="st5" width="15.4" height="17.3"/>
		<rect x="372.8" y="428" class="st5" width="17.5" height="17.3"/>
		<g>
			<path class="st6" d="M395,438.6c0,0-10-78.6-6.2-100.6H468c0,0-26.8-48.4-45.1-64.2c0,0-48.2,20-63.1,48.3
				C351.6,337.7,367,437,367,437L395,438.6z"/>
		</g>
		<path class="st7" d="M335.2,466.6h52.3c0.5-0.1,0.9-0.2,1.1-0.3c3.5-1.8,2.4-15.6,1.9-19.8c-0.1-0.8-0.2-1.2-0.2-1.2
			s-18.4-15.1-20.9-3.6c-0.1,0.4-0.2,0.7-0.2,1.1l0,0c-3.2,10.8-17.5,15.7-25.7,17.2C337.2,460.9,335.6,464.8,335.2,466.6z"/>
		<path class="st7" d="M391.1,457.4c-0.1,4.2-0.7,8-2.4,9c-0.2,0.1-0.6,0.2-1.1,0.3h-52.3c0.4-1.9,2-5.7,8.3-6.7
			c8.3-1.4,22.5-6.3,25.7-17.2l0,0c0.1-0.4,0.2-0.7,0.2-1.1c2.5-11.6,20.9,3.6,20.9,3.6s0.1,0.5,0.2,1.2
			C390.8,448.6,391.2,453.1,391.1,457.4z"/>
		<path class="st6" d="M450.5,438.2c0,0,14.9-78.6,11.1-100.6l-28.8,0.4c0,0-9.1-46.4,0.9-59.4c0,0,42.2,7.6,56.3,45
			c10.1,14.5-8.9,113.3-8.9,113.3L450.5,438.2z"/>
		<path class="st5" d="M411.8,165.5c0,0,16.1,38.2,33.2,29.6c0,0,2.3-32.6,1.6-39.4c-0.1-0.9-0.2-1.6-0.2-2.4
			c-0.6-7.6-0.8-11.9-0.8-11.9l0,0c-0.9-0.2-28.1-8.6-28-7.7C420.1,154.3,411.8,165.5,411.8,165.5z"/>
		<path class="st8" d="M421.2,141.9c3,4.4,12.6,12.8,25.6,15c-0.6-7.6-0.8-11.9-0.8-11.9l0,0C445.3,144.8,420.2,140.6,421.2,141.9z"
			/>
		<path class="st5" d="M439.3,147.3c-17.5,2.1-19.1-8.7-23-12.6c-5.6-20.3-13.6-32.8,6.9-39.8s26.7-0.3,30.2,6
			C457.1,107.3,456.9,145.3,439.3,147.3z"/>
		<path class="st9" d="M437.6,114.7c0,0-0.2,5.2,2,8.3c2.3,3-2.1,4.8-2.1,4.8"/>
		<path class="st10" d="M448.2,109.9c0,0-3.7-1-8,0"/>
		<path class="st10" d="M430.6,111.4c0,0-4.5-0.2-8,2.3"/>
		<path class="st11" d="M425.9,118.1c0.2,1.4,0.9,2.5,1.7,2.4c0.8-0.1,1.3-1.3,1.2-2.7c-0.2-1.4-0.9-2.5-1.7-2.4
			S425.7,116.6,425.9,118.1z"/>
		<path class="st11" d="M442.3,116.3c0.2,1.4,0.9,2.5,1.7,2.4s1.3-1.3,1.2-2.7c-0.2-1.4-0.9-2.5-1.7-2.4
			C442.7,113.6,442.2,114.9,442.3,116.3z"/>
		<path class="st9" d="M432.4,135.6c0,0,2.6,4,6.5-0.2C436.6,134,434.4,134.1,432.4,135.6z"/>
		<path class="st4" d="M473.3,299.6c-29.8-6.6-78.7-0.7-92.9,0c-5.2-16.8,0.5-51.1,2.9-76.4c0-0.4,0-0.7,0.1-1.1
			c0.2-6.6,4.5-14,5.6-19.6c0-0.1-3.6,1.1-3.6,1.1c3.4-17.5-11.3-40.5,29.6-43.8c2.2,0.8,12,21.8,12,21.8s13.5-21,19.3-21.3
			c59.9,1.2,26.9,48.6,24.9,75.9C475.6,267.9,473.2,285,473.3,299.6z"/>
		<g>
			<g>
				<path class="st4" d="M562.7,197.5c-4.2-3.7-6.8-2-6.8-2s-43.3,39-47.2,42.3c-19.2,16.3,4.6,32,12.4,26.3
					c17.2-12.7,46.4-60,46.4-60S566,200.5,562.7,197.5z"/>
			</g>
			<path class="st5" d="M559.7,198.1c0,0,6.7-12.7,8.3-14.4s9.7-5.7,10.2-5.4s0.7,1-0.1,2.1c-0.9,1.2-4.4,4.3-3.7,4.5
				c0.6,0.2,11.5-8.4,13.6-6.7c2.2,1.6,1.2,10.5-2.7,15.5c-3.8,5-17.4,9.6-18.2,10.4C560.9,210.3,559.7,198.1,559.7,198.1z"/>
			<g>
				<path class="st4" d="M520.7,237.6c-2.7-4.4-33.9-55.1-33.9-55.1s-11-21.4-24.7-20.9c-11.9,0.5-18.4,8-22,15.8
					c-4.3,9.4-2.3,20.3,4.8,27.7c16,16.5,48.1,49.2,56.4,54.2C519.7,270.2,524.2,243.2,520.7,237.6z"/>
			</g>
		</g>
		<path class="st7" d="M516.1,466.2h-52.3c-0.5-0.1-0.9-0.2-1.1-0.3c-1.9-1-2.5-5.8-2.5-10.5c0-3.7,0.3-7.4,0.5-9.3
			c0.1-0.8,0.2-1.2,0.2-1.2s18.4-15.1,20.9-3.5c0.1,0.4,0.2,0.7,0.3,1.1l0,0c3.2,10.8,17.5,15.7,25.7,17.2
			C514.1,460.5,515.7,464.4,516.1,466.2z"/>
		
			<ellipse transform="matrix(0.9581 -0.2864 0.2864 0.9581 -19.3568 123.8533)" class="st5" cx="413.7" cy="128.1" rx="2.8" ry="8"/>
		
			<ellipse transform="matrix(6.176662e-02 -0.9981 0.9981 6.176662e-02 302.5549 568.52)" class="st5" cx="453.7" cy="123.3" rx="8" ry="2.8"/>
	</g>
	<g>
		<path class="st7" d="M483.1,466.2h-19.3c-0.5-0.1-0.9-0.2-1.1-0.3c-1.9-1-2.5-5.8-2.5-10.5c2.7,1.6,5.7,2.7,8.8,3.4
			c3,0.7,6.3,0.9,9,2.6c1.4,0.9,2.5,2,3.6,3.2C482.1,465.1,482.7,465.7,483.1,466.2z"/>
	</g>
	<g>
		<path class="st7" d="M391.1,457.4c-0.1,4.2-0.7,8-2.4,9c-0.2,0.1-0.6,0.2-1.1,0.3h-15.4c0.5-0.7,1.2-1.4,1.8-2.1
			c1.1-1.2,2.2-2.3,3.6-3.2c2.7-1.6,5.9-1.9,9-2.6C388,458.4,389.5,457.9,391.1,457.4z"/>
	</g>
</g>
<g>
	<path class="st3" d="M142.8,359.7h102c2.9,0,5.2-2.3,5.2-5.2v-6.6c0-2.9-2.3-5.2-5.2-5.2h-102V359.7z"/>
	<path class="st1" d="M102.5,223h34.8c14.1,0,26.2,10,28.8,23.8l19.5,100.5c1.2,6.5-3.7,12.5-10.3,12.5H98.1c-3.4,0-6.2-2.6-6.7-5.9
		L79,249.4C77.4,235.3,88.4,223,102.5,223z"/>
	<polygon class="st1" points="105.8,358.2 90,469.5 84.8,469.5 96.1,358.2 	"/>
	<polygon class="st1" points="162.1,358.2 146.4,469.5 141.2,469.5 152.5,358.2 	"/>
</g>
<g>
	<g>
		<path class="st7" d="M253.4,242.2l-1-13.6c0,0-41.9,18-44.4,9c-5.2-18.6-35.3-72.8-40.6-65.7c-1.7,2.3-2.8,4.5-2.7,6.2
			c1.6,14.3,18.2,58.4,26.7,80.8C196.2,271.5,241.4,252.6,253.4,242.2z"/>
		<path class="st12" d="M253.4,242.2c0,0,3.3-5.1,6.5-3.7c3.2,1.3,8.5,1,11.8-0.5c6.1-2.9,6.5-9.4,4.4-12.5
			c-2.2-3-12.6-2.1-23.7,3.1c-0.6,0.3-3.9,1.8-3.9,1.8L253.4,242.2z"/>
	</g>
	<path class="st13" d="M183.6,314.5c0.1,2.5-0.3,4.7-1.2,6.6l0,0c-0.1,0.2-0.2,0.5-0.3,0.7c-3.6,7.1-13,9.9-24.2,10.1
		c-0.7,0-1.5,0-2.2,0c-23.3-0.4-52.2-11.4-49.6-18.5c8.7-23.2,12.8-31.3,12.5-38.4c-0.2-5.6-0.3-12.2-6.6-26.7
		c-1.5-3.4-2-11.7-2.8-15.3c-6-28.5,5-55.1,15.2-57.8c2.8-0.9,7-11.6,5.9-28.3l1.3,0.2l22,3c0,0-0.1,6.9,0.3,13.3
		c0.3,5.4,0.9,10.8,2.2,11.4c1.6,0.1,3,0.2,3,0.2s19.2,11.8,21.4,29.2c2.7,20.9-12.9,48.6-3.5,87.2c0.2,0.5,0.3,1.2,0.5,1.7l5.9,21
		l0,0C183.6,314,183.6,314.2,183.6,314.5z"/>
	<path class="st12" d="M118.6,274.9c-0.2-5.6-0.3-12.2-6.5-26.7c-1.5-3.4-2-11.7-2.8-15.3c-6-28.5,5-55.1,15.2-57.8
		c2.8-0.9,7-11.6,5.9-28.3l1.3,0.2l22,3c0,0-0.1,6.9,0.3,13.3c0.3,5.4,0.9,10.8,2.2,11.4c1.6,0.1,3,0.2,3,0.2s19.2,11.8,21.4,29.2"
		/>
	<path class="st14" d="M153.7,149.8c0,0-0.1,6.9,0.3,13.3c-12.2,0.4-19.3-10.3-22.3-16.3L153.7,149.8z"/>
	<path class="st7" d="M101.7,181.9l3.7,32.4l5.8,42c0,0,2.9,12.8,3.3,14.9c0,0.1,0,0.2,0,0.2v0.1c0.2,0.3,0.9,0.9,1.7,1.6l0,0
		c0.2,0.2,0.5,0.4,0.8,0.6l0.1,0.1c0.2,0.1,0.3,0.2,0.5,0.3c0.5,0.4,0.9,0.7,1.1,0.9l0,0c0.2,0.1,2.9,1.2,7.2,2.4c0,0,0,0,0.1,0
		c5.5,1.6,13.7,3.3,22.9,3.2c9.4-0.1,20-2,29.6-8c3,0.6,4.8-6.1,5.8-15.8c2-20.5,0.2-54.5-4.1-61.4c-3.3-5.2-14.7-16.8-20.1-21.5
		c-1.2-1-2.8-2.7-2.5-4.7c0.2-1.7-1.4-3.1-3-2.6c-3.2,1.1-9.1,1.2-15.6-0.4c-3.2-0.9-6.5-2.1-9.7-4.1c-0.9-0.5-2.1,0.1-2.2,1.2
		c-0.2,3.9-0.9,11.1-3.1,11.3C120.8,174.7,103,179.3,101.7,181.9z"/>
	<path class="st15" d="M105.4,214.2l5.8,42c0,0,2.9,12.8,3.3,14.9c0,0.1,0,0.2,0,0.2v0.1c0.2,0.3,0.9,0.9,1.7,1.6l0,0
		c0.2,0.2,0.5,0.4,0.8,0.6l0.1,0.1c0.2,0.1,0.3,0.2,0.5,0.3c0.5,0.4,0.9,0.7,1.1,0.9l0,0c2.2,1.6,4.6,1.9,7.2,2.4c0,0,0,0,0.1,0
		c0.9,0.2,1.7,0.3,2.7,0.5c10.1,2.4,13.3-16.9,12.1-26.3c-1.2-9.4-30.2-37-35-37.3C105.5,214.2,105.5,214.2,105.4,214.2z"/>
	<path class="st7" d="M123.9,174.4c0,0,15.7,8.7,27.1,5.7c0,0,2.7-1.9-1.2-3.4c-3.7-1.4-12.2-5.8-10.8-10.7
		c-3.2-0.9-6.5-2.1-9.7-4.1c-0.9-0.5-2.1,0.1-2.2,1.2C126.7,167.1,126,174.4,123.9,174.4z"/>
	<g>
		<path class="st15" d="M148.8,280.3c0,0.1,0,0.1,0,0.2c9.4-0.1,20-2,29.6-8c3,0.6,4.8-6.1,5.8-15.8c-3.9,6.9-10.1,12.7-17.6,15.7
			c-5.6,2.3-11.8,3.2-16.8,6.5C149.3,279.2,148.8,279.7,148.8,280.3z"/>
	</g>
	<g>
		<path class="st13" d="M279.7,446c0,0-28.8-83.1-32.5-104.6H145c0,0,12-47.4,29.9-62.8c0,0,92,21.5,101.8,35.7
			c9.8,14.2,20.2,135.6,20.2,135.6L279.7,446z"/>
		<path class="st16" d="M279.7,446c0,0-28.8-83.1-32.5-104.6H145c0,0,12-47.4,29.9-62.8c0,0,92,21.5,101.8,35.7
			c9.8,14.2,20.2,135.6,20.2,135.6L279.7,446z"/>
	</g>
	<path class="st13" d="M238.7,447.5c0,0-28.8-83.1-32.5-104.6H104c0,0-3-51.1,14.7-66.5c0,0,107.1,25.3,116.9,39.4
		c9.8,14.2,20.2,135.6,20.2,135.6L238.7,447.5z"/>
	<g>
		<path class="st15" d="M278.7,468.5h8c2.7-0.4,4.6-1.2,7.3-1.6c4.1-0.5,6.1,1.2,6.4,1.6c0.1,0.1,0.1,0.1,0.1,0.1h33.8
			c0.9-1.2,0-4.1-0.8-6.1c-0.5-1.4-1.7-2.5-3.2-2.9c-3.6-1-10.6-1.9-17.1-7.8c-3.7-3.3-17.5-12.1-17.5-12.1h-0.1
			c-0.3,0-1.8,0.5-8.1,5.8c-3.3,2.7-8.9-3.9-8.9-3.9s-1,0.9-1.8,2.5c-0.6,1.2-1.1,3-0.7,5.1c0.5,3-1.1,8.7-2.4,12.5
			c-0.8,2.3-1.5,4-1.5,4S271.8,467.6,278.7,468.5z"/>
		<path class="st7" d="M276.8,444.1c1.9,1.3,5.9,4,8.6,4.3c3.6,0.5,10.3-8.7,10.3-8.7h-0.1c-0.3,0-1.8,0.5-8.1,5.8
			c-3.3,2.7-8.9-3.9-8.9-3.9S277.6,442.5,276.8,444.1z"/>
		<path class="st7" d="M278.7,468.5h8c2.7-0.4,4.6-1.2,7.3-1.6c4.1-0.5,6.1,1.2,6.4,1.6c0.1,0.1,0.1,0.1,0.1,0.1h33.8
			c0.9-1.2,0-4.1-0.8-6.1c-1-0.9-1.3,4-1.9,4.8c-0.5,0.8-27.5,0.3-29.1-0.9c-1.6-1.2-6.2-3.1-12.7-1.6c-5.7,1.3-14-2.1-16.1-3
			c-0.8,2.3-1.5,4-1.5,4S271.8,467.6,278.7,468.5z"/>
	</g>
	<g>
		<path class="st7" d="M237.4,468.5h8c2.7-0.4,4.6-1.2,7.3-1.6c4.1-0.5,6.1,1.2,6.4,1.6c0.1,0.1,0.1,0.1,0.1,0.1H293
			c0.9-1.2,0-4.1-0.8-6.1c-0.5-1.4-1.7-2.5-3.2-2.9c-3.6-1-10.6-1.9-17.1-7.8c-3.7-3.3-17.5-12.1-17.5-12.1h-0.1
			c-0.3,0-1.8,0.5-8.1,5.8c-3.3,2.7-8.9-3.9-8.9-3.9s-1,0.9-1.8,2.5c-0.6,1.2-1.1,3-0.7,5.1c0.5,3-1.1,8.7-2.4,12.5
			c-0.8,2.3-1.5,4-1.5,4S230.5,467.6,237.4,468.5z"/>
		<path class="st15" d="M235.5,444.1c1.9,1.3,5.9,4,8.6,4.3c3.6,0.5,10.3-8.7,10.3-8.7h-0.1c-0.3,0-1.8,0.5-8.1,5.8
			c-3.3,2.7-8.9-3.9-8.9-3.9S236.3,442.5,235.5,444.1z"/>
		<path class="st15" d="M237.4,468.5h8c2.7-0.4,4.6-1.2,7.3-1.6c4.1-0.5,6.1,1.2,6.4,1.6c0.1,0.1,0.1,0.1,0.1,0.1H293
			c0.9-1.2,0-4.1-0.8-6.1c-1-0.9-1.3,4-1.9,4.8c-0.5,0.8-27.5,0.3-29.1-0.9c-1.6-1.2-6.2-3.1-12.7-1.6c-5.7,1.3-14-2.1-16.1-3
			c-0.8,2.3-1.5,4-1.5,4S230.5,467.6,237.4,468.5z"/>
	</g>
	<g>
		<path class="st12" d="M159.9,239.1c0,0-2.3-5.9-7.6-4c-5.2,1.9-3.7,10.7-0.9,14c2.7,3.3,3.4,4.7,3.4,4.7L159.9,239.1z"/>
		<path class="st7" d="M81.1,285.8c24.1,2.6,61-22.6,61-22.6l-4.2-7.7c-9.3,5.2-40.8,8.3-40.8,8.3c2.7-6.9,4.9-13.3,6.6-19.2
			c11.5-40.2,1.7-58.7-1.2-63.1c-0.5-0.7-2.6,3.2-3.9,6.4C88.8,211.6,60.9,283.7,81.1,285.8z"/>
		<path class="st7" d="M81.1,285.8c24.1,2.6,61-22.6,61-22.6l-4.2-7.7c-9.3,5.2-40.8,8.3-40.8,8.3c2.7-6.9,4.9-13.3,6.6-19.2
			c11.5-40.2,3.5-60.8-1.2-63.1C95.4,178.3,66.1,269.4,81.1,285.8z"/>
		<path class="st12" d="M138,255.5c0.5-0.9,6.1-14.1,9.7-15.7s10.2-3.1,11.6-2.3s3.4,11.3-1.2,16.3c-4.6,5-15.8,9.3-15.8,9.3
			L138,255.5z"/>
	</g>
	<g>
		<path class="st6" d="M187.9,195.1c-9.7,0.4-13.8,13.5-35.1,16.4c-3.8,0.5-7.8,0.2-11.5-0.9c-4.6-1.4-11.4-3.9-16.4-7.6
			c-8.7-6.4-24.4-2.4-35.7-1.7c0,0,4.4-13.1,9.6-18.8c8.3-9.1,17.9-12.6,18.1-14s0.9-13,0.5-20.6s-3.9-46.2,29-47.5
			c0,0,32.4-1.1,26.4,45.7c-2.6,5.9,1.1,14.2,3.4,18.5c0.9,1.7,1.1,3.7,0.5,5.5l-0.5,1.8c-0.4,1.3,0.4,2.7,1.8,3.1
			c2.8,0.8,7.3,2.1,10.9,3.5c2.8,1.1,5.3,7.6,11.5,10.1C200.7,192.4,193.2,194.9,187.9,195.1z"/>
		<path class="st17" d="M107.2,189.2c-0.2,0.2-0.1,0.6,0.3,0.5c2.6-0.4,8.8-1.9,11.8-8c2.7-5.2,1.9-10.1,1.2-12.7
			c-0.1-0.4-0.7-0.3-0.7,0.1c-0.2,2.9-1,8.6-4.3,12.1C112.1,184.9,108.7,187.9,107.2,189.2z"/>
		<path class="st17" d="M119.7,161.3C119.6,161.3,119.7,161.3,119.7,161.3c1.4,1.9,9.4,13.6,11.8,22.8c2.7,10.1,0.4,11.1-0.5,11.6
			s-3.5,1.2-4.1,0.2c-0.5-1.1,0-3.8,0.6-6.5c0.6-2.7,0.1-7.6-1.2-12.3C125.2,173,120.6,163.1,119.7,161.3z"/>
		<path class="st17" d="M172.9,173.6c0.2-0.1,0.1-0.3-0.2-0.3c-2.5,0.5-10.3,1.9-15.3,0.6c-4.8-1.2-10.1-4.3-12.3-5.6
			c-0.4-0.2-0.8,0.1-0.6,0.5c0.8,2.3,3.4,7.3,11.5,8.4C164.5,178.4,170.9,174.9,172.9,173.6z"/>
		<path class="st17" d="M170.2,152.4c0.2-0.2,1.3,0.6,1.3,0.9c0,1.6-1.1,4.6-4,7.3c-3.5,3.3-7.3,4.4-11.6,5c-0.1,0-0.2-0.2-0.1-0.2
			c1.6-0.9,7.3-4.2,9.5-6.5C167.4,156.6,169.3,153.6,170.2,152.4z"/>
		<path class="st17" d="M120.5,130.7c0,0,0.5,21.2,7,34.4c6.6,13.2,15.4,20.1,30.4,22.4c1.1,0.1,12.6,0.3,22.1-0.9
			c0,0,2.8-0.4,3,0.7c0.2,1.1-2.8,3.4-5.4,4.4c-2.6,1-10.3,4.2-18.2,4.4c-8,0.3-17.1-4.1-19.3-6.6s-8.2-9.2-10.4-14.7
			c-2.3-5.5-5.8-13.4-6.7-16.8C122.1,154.5,119.1,141.6,120.5,130.7z"/>
		<path class="st17" d="M159.2,184c0,0-11.4-8.3-16.9-14.3s-11.4-13.9-14.5-25.2c-3.1-11.3-0.5-22.8,3.2-32.2c0,0-4.6,7.6-5.8,19.3
			c0,0-0.4-13.7-0.2-16.9c0,0-1.9,7.5-1.6,18.4c0.4,10.9,3.2,18.9,5.1,23.5C130.4,161,140,177.3,159.2,184z"/>
		<path class="st17" d="M162.8,158.4c0,0,5.8-6.9,7.3-16.1c1.6-9.2,1.6-13.6,0.8-18.9c0,0-0.7,12.9-1.8,17.2c0,0,1.6-14.7-3.4-24.2
			c0,0,1.6,8.4,1.6,11c0,0-2.4-11.8-6.4-16c0,0,6,12.7,6,21.7C167,133,167.3,147.2,162.8,158.4z"/>
	</g>
	<path class="st12" d="M153.1,155c0,0-20.2-0.3-21.4-18.2c-1.1-17.9,19.7-27.6,22.3-27.4c2.4,1.2,6.4,5.9,10.8,9.1
		C166.6,124.3,164,155,153.1,155z"/>
	<path class="st18" d="M153.1,129.1c0,0-0.2,4,1.6,6.4c1.7,2.3-1.6,3.7-1.6,3.7"/>
	<path class="st18" d="M161.4,124.3c0,0-2.3-0.9-5-0.4"/>
	<path class="st11" d="M144.5,132.1c0.2,1.1,0.7,1.9,1.3,1.9c0.6-0.1,1-1,0.9-2.1c-0.2-1.1-0.7-1.9-1.3-1.9
		C144.8,130.1,144.4,131,144.5,132.1z"/>
	<path class="st11" d="M157.2,130.7c0.2,1.1,0.7,1.9,1.3,1.9c0.6-0.1,1-1,0.9-2.1c-0.2-1.1-0.7-1.9-1.3-1.9
		C157.5,128.6,157.1,129.6,157.2,130.7z"/>
	<path class="st18" d="M149.6,144c0,0,2.5-0.5,5.1,0.2"/>
	<path class="st18" d="M147.7,124.5c0,0-3-0.5-4.9,0.9"/>
</g>
<g>
	<polygon class="st5" points="557,453.8 559.6,441.4 537.2,439.1 536.9,451.9 554.9,457.5 	"/>
	<path class="st19" d="M555.7,469.2c3.7-2.3,1.3-15.3,1.3-15.3s-10.4,1.2-20.1-1.9c-2.3,7.2-15.8,10.1-23.9,11.4
		c-5.5,0.9-7.3,4-7.8,5.8H555.7z"/>
	<g>
		<path class="st3" d="M729.4,217.8h-35.6c-14.3,0-26.7,10.2-29.5,24.3l-19.9,102.6c-1.2,6.5,3.7,12.7,10.4,12.7h78.9
			c3.5,0,6.4-2.6,6.8-6.1l12.6-106.6C755,230.3,743.8,217.8,729.4,217.8z"/>
		<polygon class="st3" points="727.2,355.8 743.2,469.4 748.5,469.4 737,355.8 		"/>
		<polygon class="st3" points="669.6,355.8 685.6,469.4 690.9,469.4 679.4,355.8 		"/>
		<path class="st2" d="M733.9,357.3h-97.1c-3,0-5.4-2.4-5.4-5.4v-6.8c0-3,2.4-5.4,5.4-5.4H742l-1.3,11.4
			C740.3,354.8,737.4,357.3,733.9,357.3z"/>
		<polygon class="st20" points="597.5,355.8 581.5,469.4 576.2,469.4 587.7,355.8 		"/>
		<polygon class="st1" points="655.1,355.8 639.1,469.4 633.8,469.4 645.3,355.8 		"/>
		<path class="st1" d="M658,357.3h-73.9c-3,0-5.4-2.4-5.4-5.4v-6.8c0-3,2.4-5.4,5.4-5.4H658c2.9,0,5.2,2.3,5.2,5.2v7
			C663.2,355,660.9,357.3,658,357.3z"/>
	</g>
	<g>
		<path class="st5" d="M563.5,272.7c5.8-3.7,8.1-4.6,8.1-4.6s36.6-26.2,40.5-28.6c19.4-12,26.4,12.8,19.3,17.9
			c-15.7,11.5-64.8,23.5-64.8,23.5S560.1,274.9,563.5,272.7z"/>
	</g>
	<g>
		<path class="st13" d="M610.7,240.4c2.1-4.1,26.9-52.4,26.9-52.4s8.4-20.2,20.9-20.7c10.8-0.4,17.2,5.9,21,12.8
			c4.5,8.1,3.5,18.2-2.4,25.4c-13.3,16.1-40.1,48-47.2,53C614,269.9,608,245.7,610.7,240.4z"/>
	</g>
	<path class="st13" d="M660.7,200.8c0.1,8.7,0.1,18,0.1,27.4c-4.4,15.5-17.2,17.4-19.3,19c-4.1,3.2-3.7,3.9-6.9,7.1
		c-0.5-5.3-1.5-11.9-1.4-14.7c0-1.1,0-2.4-0.1-4l6.2-30.9c1.9-9.9,14.7-12.8,20.8-4.8L660.7,200.8z"/>
	<path class="st5" d="M563.5,272.7c0,0-12.9,2.3-14.8,3.3c-1.9,0.9-7.6,6.8-7.5,7.4c0.2,0.6,0.7,0.9,1.9,0.5s4.9-2.6,4.9-2
		c-0.1,0.5-10.4,7.6-9.6,9.9c0.9,2.3,8.8,3.9,14.2,2s13.1-12.4,14-12.9C573.8,277.1,563.5,272.7,563.5,272.7z"/>
	<path class="st5" d="M684.8,145l13.2,24.5c0,0-16.8,35.6-26.3,34.8c-7.9-0.7-7.3-37.2-7.3-37.2s4.3-8.3,1.5-15.4
		C663.1,144.7,684.8,145,684.8,145z"/>
	<path class="st8" d="M665.9,151.8c-2.8-7.2,18.9-6.8,18.9-6.8l0.8,2.1c-0.3,1.6-0.8,3-1.5,4.1c-3.6,5.9-12,10.2-18.2,11.8
		C667.2,158.3,667.1,154.7,665.9,151.8z"/>
	<path class="st5" d="M690.8,108.3c9.4,13.6,0.6,27.8-5.4,37.7c-6,10-20.7,15.9-27.5,10.6c-7.6-5.9-14.3-38.3-3.9-49.3
		C664.2,96.1,683.1,97.3,690.8,108.3z"/>
	<path class="st4" d="M721.1,307.6c0.1,2.7-2,4.9-4.8,5l-50.6,0.8l-37.2,0.5c-1.7,0,3.7-13.9,3.9-104.7c0-20.3,31.4-42,32-42l0,0
		c0,2.9,4.6,8.3,11.7,8.7c8.4,0.5,20.1-4.9,20.1-9.7c0-0.1,2.3,2.6,2.3,2.6c4.2,6.1,11.5,23.1,16.9,49c4.3,20.5,2.7,47.9,5.7,83.3
		C721.3,303.5,721,305.8,721.1,307.6z"/>
	<path class="st13" d="M719.2,312.8c0,0-6.7,3-19.3,5.6c-9.4,1.9-21.9,3.7-37.4,3.7c-24.6,0.2-33.9-8.3-33.9-8.3
		c-1.7,0,3.7-13.9,3.9-104.7c0-20.3,31.4-42,32-42l0,0c0,0-0.8,27,7.3,34.9c0,0,11.5-8.8,26.3-34c4.2,6.1,11.9,23.7,17.3,49.7
		c1.1,5.3,1.8,11,2.3,17.2c1.4,17.9,1.1,39.8,3.4,66c0.2,2.6-0.1,4.8-0.1,6.6C721.2,310.2,721.9,312.8,719.2,312.8z"/>
	<path class="st21" d="M719.2,312.8c0,0-6.7,3-19.3,5.6c-4-6-9-16.9-9.7-34.1c-1.2-29,26.4-66.4,26.4-66.4l1,17
		c1.4,17.9,1.1,39.8,3.4,66c0.2,2.6-0.1,4.8-0.1,6.6C721.2,310.2,721.9,312.8,719.2,312.8z"/>
	<g>
		<path class="st5" d="M748.4,263.2c0,0-9.2,2.9-25.7,4.6c-11.8,1.2-27.5,1.8-46.2,0.3l3.3-9.8c0,0,20.8-5.3,35.7-10.8
			c3.7-1.3,7.1-2.7,9.6-4c3.1-1.6-18.2-76.2-11.7-73C722.2,174.6,754.8,235.6,748.4,263.2z"/>
		<path class="st5" d="M680,258.1c0,0-8.5-5.1-11.2-4.6s-10.1,5.1-10.4,7.5c-0.3,2.4,0.2,6.5,2.6,6.9c2.4,0.4,12.3,0.7,14.7,0.4
			C678.2,268,683.9,265.4,680,258.1z"/>
		<path class="st13" d="M748.4,263.2c0,0-9.2,2.9-25.7,4.6c0-4.6-0.9-13.3-7.1-20.3c3.7-1.3,7.1-2.7,9.6-4
			c3.1-1.6-22.8-28.5-36.3-51.5c-2.3-7.9,7-15.7,7-15.7l2.2-8.2c6.8-0.1,8.9-0.8,15.4,2.3C722.2,174.6,754.8,235.6,748.4,263.2z"/>
	</g>
	<path class="st22" d="M656.1,128.8c0,0,0.4,4.5-1.4,7.3c-1.8,2.8,2,4.1,2,4.1"/>
	<path class="st23" d="M647.5,123.7c1.6,0.2,3.1,0.5,4.9,1.1"/>
	<path class="st11" d="M666.5,131.2c-0.1,1.2-0.7,2.3-1.4,2.2c-0.7,0-1.2-1.1-1.2-2.3c0.1-1.2,0.7-2.3,1.4-2.2
		C666,128.9,666.5,129.9,666.5,131.2z"/>
	<path class="st11" d="M651.9,130.5c-0.1,1.2-0.7,2.3-1.4,2.2c-0.7,0-1.2-1.1-1.2-2.3s0.7-2.3,1.4-2.2
		C651.5,128.1,652,129.2,651.9,130.5z"/>
	<path class="st22" d="M662.9,146.3c0,0-3.2,0-6.4,0.9"/>
	<path class="st23" d="M662.9,124.8c0,0,3.5-1.2,5.6-1.2"/>
	<path class="st13" d="M592.3,253.3l15.1,15.4c0,0,20.7-6.4,24.1-11.3c3.4-4.9-19.5-19.6-19.5-19.6L592.3,253.3z"/>
	<path class="st6" d="M649.4,117.5c0,0,1.4-5.4,2.6-5.2c1.2,0.2,0.9,6.2,11.9,3.4c11.1-2.8,10.5-0.9,10.8,2.4s0.2,6.7,0.2,6.7h3.4
		c0,0,18.9-0.8,19.6-5.1c0.7-4.3,0.2-15-5.2-19.5c-3.3-2.7-13.9-7.9-26.8-3.9s-14.7,5.5-17.2,6.9
		C643.4,106.3,649.4,117.5,649.4,117.5z"/>
	<path class="st6" d="M697.8,119.8c0,0-4.1,18.3-9.3,23.6c-5.1,5.3-9.8-6-9.8-6l-2.1-14.7L697.8,119.8z"/>
	<path class="st5" d="M677.4,129.1c0,0,6-5.5,7.2-1.6s-0.2,13-3.8,12.8c-3.6-0.3-3.6-0.3-3.6-0.3"/>
	<polygon class="st6" points="674.9,123.2 674.7,133.8 677.1,133.8 678.5,126.4 676.6,122.7 	"/>
	<path class="st7" d="M562,444.9c0,0,22.4-83.1,26-104.6h99.9c0,0,1.7-32-4.4-39.3c0,0-117.6-1.9-127.4,12.2
		c-9.8,14.2-20.2,131-20.2,131L562,444.9z"/>
	<path class="st19" d="M562,444.9c0,0,22.4-83.1,26-104.6h99.9c0,0,1.7-32-4.4-39.3c0,0-117.6-1.9-127.4,12.2
		c-9.8,14.2-20.2,131-20.2,131L562,444.9z"/>
	<polygon class="st5" points="596.3,453.8 599,441.4 576.5,439.1 576.2,451.9 594.2,457.5 	"/>
	<path class="st7" d="M595,469.2c3.7-2.3,1.3-15.3,1.3-15.3s-10.4,1.2-20.1-1.9c-2.3,7.2-15.8,10.1-23.9,11.4
		c-5.5,0.9-7.2,4-7.8,5.8H595z"/>
	<path class="st7" d="M599.5,444.9c0,0,22.4-83.1,26-104.6h90.6c5.2,0,9.4-4.2,9.5-9.4c0-10.1-0.6-25.1-4.5-29.9
		c0,0-117.6-1.9-127.4,12.2c-9.8,14.2-20.2,131-20.2,131L599.5,444.9z"/>
</g>
<g>
	<path class="st6" d="M641.2,282H184.3c-1.4,0-2.6-1.2-2.6-2.6v-6c0-1.4,1.2-2.6,2.6-2.6h456.9c1.4,0,2.6,1.2,2.6,2.6v6
		C643.8,280.9,642.7,282,641.2,282z"/>
	<polygon class="st6" points="194.4,282 166.9,469.2 171.9,469.2 204.3,282 	"/>
	<polygon class="st6" points="269.2,282 241.6,469.2 246.6,469.2 279,282 	"/>
	<polygon class="st6" points="640.2,274.2 669.6,469.2 665.6,469.2 632.4,274.2 	"/>
	<polygon class="st6" points="571.8,280.7 599.5,469.2 594.5,469.2 561.9,280.7 	"/>
</g>
<g id="Layer_9">
	<path class="st1" d="M202.5,16.9v86.8c0,5.5,4.4,9.9,9.9,9.9H370c5.5,0,9.9-4.4,9.9-9.9V16.9c0-5.5-4.4-9.9-9.9-9.9H212.5
		C207,6.9,202.5,11.4,202.5,16.9z"/>
	<polygon class="st1" points="337.5,112.1 368.9,135.5 361.1,112.1 	"/>
</g>
<path class="st24" d="M412.8,123.4c0.1-3,2.8-21.1,9.4-23.9c6.3-2.7,9.2,2.8,15.1,0.8s10.4-3.3,13.3-1.3c3,1.9,4.5,16.6,4.5,16.6
	s1.2-26.3-2.7-27.4c-3.9-1.1-1.3-7.7-6.9-8.2c-5.5-0.5-12.6-1-18.3,1.1c-5.1,1.9-8.5,8.1-8.5,8.1S401.1,99,412.8,123.4z"/>
<path class="st24" d="M413,109.3c0,0,1.2,11.9,1.7,14l-1.3,1.8c0,0-0.9-2-1.6-3.9C411,119.3,413,109.3,413,109.3z"/>
<g id="Layer_2_00000114049885084879285980000006250573426980483984_">
	<text transform="matrix(-1 0 0 1 322.5391 65.1665)" class="st0 st25 st26">...</text>
</g>
</svg>
